<?xml version="1.0" standalone="no"?>
<!DOCTYPE svg PUBLIC "-//W3C//DTD SVG 20010904//EN"
 "http://www.w3.org/TR/2001/REC-SVG-20010904/DTD/svg10.dtd">
<svg version="1.0" xmlns="http://www.w3.org/2000/svg"
 width="1024.000000pt" height="491.000000pt" viewBox="0 0 1024.000000 491.000000"
 preserveAspectRatio="xMidYMid meet">

<g transform="translate(0.000000,491.000000) scale(0.100000,-0.100000)"
fill="#000000" stroke="none">
<path d="M8910 4680 c-444 -38 -733 -271 -840 -677 -45 -172 -45 -171 -45
-1528 0 -1181 1 -1298 17 -1387 87 -483 354 -740 828 -799 120 -15 325 -6 445
20 358 75 587 299 680 664 37 146 45 260 45 627 l0 340 -319 0 -320 0 -3 -383
c-4 -372 -5 -384 -28 -447 -17 -47 -37 -79 -75 -116 -65 -66 -128 -88 -245
-88 -174 0 -271 67 -326 224 -18 53 -19 102 -19 1355 l0 1300 23 67 c30 85 91
156 164 189 45 20 69 24 158 24 88 0 113 -4 155 -23 63 -29 110 -74 142 -136
44 -87 53 -158 53 -453 l0 -273 321 0 321 0 -5 323 c-4 271 -8 337 -25 417
-79 376 -279 610 -607 713 -135 42 -334 61 -495 47z"/>
<path d="M200 2485 l0 -2155 295 0 295 0 1 1508 0 1507 59 -350 c33 -192 146
-871 251 -1508 l192 -1157 320 2 321 3 230 1524 231 1525 3 -1527 2 -1527 320
0 320 0 0 2155 0 2155 -469 0 -469 0 -6 -27 c-3 -16 -107 -700 -231 -1522
-124 -822 -226 -1496 -228 -1497 -1 -1 -112 673 -246 1499 -135 826 -247 1512
-249 1525 l-4 22 -469 0 -469 0 0 -2155z"/>
<path d="M3945 4608 c-3 -18 -156 -976 -340 -2128 -184 -1152 -338 -2107 -341
-2123 l-6 -27 311 0 311 0 5 23 c3 12 28 175 55 362 28 187 53 352 56 368 l6
27 414 0 c228 0 414 -3 414 -7 1 -5 27 -179 58 -388 l58 -380 343 -3 343 -2
-6 27 c-3 16 -157 971 -341 2123 -184 1152 -337 2110 -340 2128 l-6 32 -494 0
-494 0 -6 -32z m471 -2906 c-175 -1 -321 0 -324 2 -4 5 302 2075 315 2126 3
14 74 -429 167 -1050 l162 -1075 -320 -3z"/>
<path d="M5850 2485 l0 -2155 340 0 340 0 0 810 0 810 224 0 c328 0 455 22
636 111 92 46 116 64 195 143 102 103 163 207 209 354 52 167 57 219 63 642 5
419 -2 573 -36 729 -66 302 -233 515 -486 620 -189 79 -317 91 -972 91 l-513
0 0 -2155z m1165 1500 c69 -36 107 -80 137 -160 22 -58 23 -73 26 -490 3 -449
-1 -519 -39 -605 -27 -60 -81 -114 -143 -141 -46 -21 -70 -23 -258 -27 l-208
-4 0 732 0 732 213 -4 213 -3 59 -30z"/>
</g>
</svg>
